<svg width="274" height="9" viewBox="0 0 274 9" fill="none" xmlns="http://www.w3.org/2000/svg">
<path d="M2 4.5C5.33333 1.16667 8.66667 1.16667 12 4.5C15.3333 7.83333 18.6667 7.83333 22 4.5C25.3333 1.16667 28.6667 1.16667 32 4.5C35.3333 7.83333 38.6667 7.83333 42 4.5C45.3333 1.16667 48.6667 1.16667 52 4.5C55.3333 7.83333 58.6667 7.83333 62 4.5C65.3333 1.16667 68.6667 1.16667 72 4.5C75.3333 7.83333 78.6667 7.83333 82 4.5C85.3333 1.16667 88.6667 1.16667 92 4.5C95.3333 7.83333 98.6667 7.83333 102 4.5C105.333 1.16667 108.667 1.16667 112 4.5C115.333 7.83333 118.667 7.83333 122 4.5C125.333 1.16667 128.667 1.16667 132 4.5C135.333 7.83333 138.667 7.83333 142 4.5C145.333 1.16667 148.667 1.16667 152 4.5C155.333 7.83333 158.667 7.83333 162 4.5C165.333 1.16667 168.667 1.16667 172 4.5C175.333 7.83333 178.667 7.83333 182 4.5C185.333 1.16667 188.667 1.16667 192 4.5C195.333 7.83333 198.667 7.83333 202 4.5C205.333 1.16667 208.667 1.16667 212 4.5C215.333 7.83333 218.667 7.83333 222 4.5C225.333 1.16667 228.667 1.16667 232 4.5C235.333 7.83333 238.667 7.83333 242 4.5C245.333 1.16667 248.667 1.16667 252 4.5C255.333 7.83333 258.667 7.83333 262 4.5C265.333 1.16667 268.667 1.16667 272 4.5" stroke="#E4DAFE" stroke-width="3"/>
</svg>
